<svg width="15" height="9" viewBox="0 0 15 9" fill="none" xmlns="http://www.w3.org/2000/svg">
<path fill-rule="evenodd" clip-rule="evenodd" d="M0.9375 4.5C0.9375 4.37568 0.986886 4.25645 1.07479 4.16854C1.1627 4.08063 1.28193 4.03125 1.40625 4.03125H12.4622L9.51188 1.08187C9.42386 0.993853 9.37441 0.874474 9.37441 0.749997C9.37441 0.62552 9.42386 0.506141 9.51188 0.418122C9.59989 0.330103 9.71927 0.280655 9.84375 0.280655C9.96823 0.280655 10.0876 0.330103 10.1756 0.418122L13.9256 4.16812C13.9693 4.21166 14.0039 4.26339 14.0275 4.32034C14.0512 4.37729 14.0633 4.43834 14.0633 4.5C14.0633 4.56165 14.0512 4.6227 14.0275 4.67965C14.0039 4.7366 13.9693 4.78833 13.9256 4.83187L10.1756 8.58187C10.0876 8.66989 9.96823 8.71934 9.84375 8.71934C9.71927 8.71934 9.59989 8.66989 9.51188 8.58187C9.42386 8.49385 9.37441 8.37447 9.37441 8.25C9.37441 8.12552 9.42386 8.00614 9.51188 7.91812L12.4622 4.96875H1.40625C1.28193 4.96875 1.1627 4.91936 1.07479 4.83145C0.986886 4.74355 0.9375 4.62432 0.9375 4.5Z" fill="white"/>
</svg>
