<svg width="15" height="9" viewBox="0 0 15 9" fill="none" xmlns="http://www.w3.org/2000/svg">
<path fill-rule="evenodd" clip-rule="evenodd" d="M0.9375 4.50001C0.9375 4.37569 0.986886 4.25646 1.07479 4.16856C1.1627 4.08065 1.28193 4.03126 1.40625 4.03126H12.4622L9.51188 1.08189C9.42386 0.993869 9.37441 0.87449 9.37441 0.750012C9.37441 0.625535 9.42386 0.506156 9.51188 0.418137C9.59989 0.330118 9.71927 0.28067 9.84375 0.28067C9.96823 0.28067 10.0876 0.330118 10.1756 0.418137L13.9256 4.16814C13.9693 4.21168 14.0039 4.26341 14.0275 4.32036C14.0512 4.3773 14.0633 4.43835 14.0633 4.50001C14.0633 4.56167 14.0512 4.62272 14.0275 4.67967C14.0039 4.73662 13.9693 4.78834 13.9256 4.83189L10.1756 8.58189C10.0876 8.66991 9.96823 8.71935 9.84375 8.71935C9.71927 8.71935 9.59989 8.66991 9.51188 8.58189C9.42386 8.49387 9.37441 8.37449 9.37441 8.25001C9.37441 8.12553 9.42386 8.00616 9.51188 7.91814L12.4622 4.96876H1.40625C1.28193 4.96876 1.1627 4.91938 1.07479 4.83147C0.986886 4.74356 0.9375 4.62433 0.9375 4.50001Z" fill="black"/>
</svg>
