<?xml version="1.0" encoding="utf-8"?>
<!-- Generator: Adobe Illustrator 26.0.3, SVG Export Plug-In . SVG Version: 6.00 Build 0)  -->
<svg version="1.1" id="Layer_1" xmlns="http://www.w3.org/2000/svg" xmlns:xlink="http://www.w3.org/1999/xlink" x="0px" y="0px"
	 viewBox="0 0 16 16" style="enable-background:new 0 0 16 16;" xml:space="preserve">
<style type="text/css">
	.st0{fill:#DA2128;}
	.st1{fill:#FFFFFF;}
</style>
<g id="Favicon">
	<path class="st0" d="M15,16H1c-0.5,0-1-0.4-1-1V1c0-0.5,0.4-1,1-1H15c0.5,0,1,0.4,1,1V15C16,15.6,15.6,16,15,16z"/>
	<path class="st1" d="M10.4,4.5C9.9,4.3,9.3,4.1,8.8,4.1c-0.7,0-1.3,0.2-1.9,0.5C6.3,5,5.8,5.4,5.5,6C5.2,6.6,5,7.2,5,7.9
		c0,0.7,0.2,1.3,0.5,1.9c0.3,0.6,0.8,1,1.4,1.4c0.6,0.3,1.2,0.5,1.9,0.5c0.5,0,1.1-0.1,1.6-0.4c0.5-0.2,1-0.6,1.4-1l1.3,1.4
		c-0.6,0.6-1.3,1.1-2.1,1.4c-0.8,0.3-1.6,0.5-2.4,0.5c-1.1,0-2.1-0.3-3-0.8c-0.9-0.5-1.6-1.2-2.1-2.1C3,10,2.8,9,2.8,8
		S3.1,5.9,3.6,5C4.1,4.2,4.8,3.5,5.7,3c0.9-0.5,1.9-0.8,3-0.8c0.8,0,1.6,0.2,2.4,0.5c0.8,0.3,1.4,0.8,2,1.3l-1.3,1.6
		C11.4,5.1,11,4.8,10.4,4.5z"/>
</g>
</svg>
