<?xml version="1.0" encoding="utf-8"?>
<!-- Generator: Adobe Illustrator 25.2.1, SVG Export Plug-In . SVG Version: 6.00 Build 0)  -->
<svg version="1.1" id="Spotify" xmlns="http://www.w3.org/2000/svg" xmlns:xlink="http://www.w3.org/1999/xlink" x="0px" y="0px"
	 viewBox="0 0 24 24" style="enable-background:new 0 0 24 24;" xml:space="preserve">
<style type="text/css">
	.st0{fill:#FFFFFF;}
</style>
<path class="st0" d="M12,0C5.4,0,0,5.4,0,12c0,6.6,5.4,12,12,12s12-5.4,12-12C24,5.4,18.6,0,12,0z M17.4,17.5
	c-0.1,0.2-0.4,0.4-0.6,0.4c0,0,0,0,0,0c-0.1,0-0.2,0-0.3-0.1h0l0,0c0,0-0.2-0.1-0.4-0.2c-0.4-0.2-0.7-0.4-1.1-0.5
	c-0.9-0.4-2.2-0.9-3.8-1c-0.4-0.1-0.9-0.1-1.3-0.1c-1.9-0.1-3.4,0.2-4,0.4c-0.2,0-0.3,0.1-0.3,0.1l0,0c-0.2,0.1-0.4,0-0.6-0.1
	c-0.2-0.1-0.3-0.3-0.4-0.5c-0.1-0.4,0.1-0.8,0.5-1c0.2-0.1,2.1-0.6,4.7-0.5c0.5,0,1,0.1,1.4,0.1c3,0.4,5.2,1.6,5.9,2
	C17.5,16.7,17.6,17.2,17.4,17.5z M19.1,14c-0.2,0.3-0.5,0.4-0.8,0.4c0,0,0,0,0,0c-0.1,0-0.3,0-0.4-0.1l0,0l-0.2-0.1
	c-0.1,0-0.2-0.1-0.3-0.2c-0.3-0.2-0.7-0.4-1.3-0.6c-1-0.4-2.5-1-4.3-1.2c-0.5-0.1-1-0.1-1.5-0.1c-2.2-0.1-3.9,0.3-4.6,0.4
	c-0.1,0-0.2,0.1-0.3,0.1l0,0c-0.2,0.1-0.5,0-0.7-0.1c-0.2-0.1-0.4-0.3-0.4-0.6c-0.1-0.5,0.1-1,0.6-1.2c0,0,2.3-0.7,5.5-0.6
	c0.6,0,1.1,0.1,1.7,0.1c3.5,0.4,6.3,2,6.8,2.3C19.3,13,19.4,13.6,19.1,14z M20.1,10.9C20.1,10.9,20.1,10.9,20.1,10.9
	c-0.2,0-0.4-0.1-0.6-0.2c0,0,0,0-0.1-0.1c-0.1-0.1-0.2-0.1-0.4-0.2c-0.5-0.3-1-0.5-1.5-0.7c-1.2-0.5-3-1.2-5.1-1.4
	c-0.6-0.1-1.2-0.1-1.8-0.1c-3-0.1-5.3,0.5-5.7,0.6l-0.1,0C4.6,8.9,4.3,8.8,4,8.7C3.8,8.6,3.6,8.3,3.5,8C3.4,7.5,3.7,6.9,4.3,6.7
	C4.5,6.6,7.1,5.9,10.7,6c0.7,0,1.3,0.1,2,0.1c4.2,0.5,7.4,2.4,8,2.7c0.5,0.3,0.7,1,0.4,1.5C20.8,10.7,20.5,10.9,20.1,10.9z"/>
</svg>
