<?xml version="1.0" encoding="utf-8"?>
<!-- Generator: Adobe Illustrator 27.1.1, SVG Export Plug-In . SVG Version: 6.00 Build 0)  -->
<svg version="1.1" id="Layer_1" xmlns="http://www.w3.org/2000/svg" xmlns:xlink="http://www.w3.org/1999/xlink" x="0px" y="0px"
	 viewBox="0 0 16 16" style="enable-background:new 0 0 16 16;" xml:space="preserve">
<style type="text/css">
	.st0{fill:#FFFFFF;}
</style>
<path class="st0" d="M11.28,0.61L10.89,0H8.56v5.48l-0.01,5.35c0,0.04,0.01,0.08,0.01,0.12c0,1.34-1.09,2.43-2.43,2.43
	s-2.43-1.09-2.43-2.43c0-1.34,1.09-2.43,2.43-2.43c0.28,0,0.55,0.05,0.8,0.14V5.99C6.66,5.95,6.4,5.93,6.13,5.93
	c-2.78,0-5.04,2.26-5.04,5.04c0,2.78,2.26,5.04,5.04,5.04c2.78,0,5.04-2.26,5.04-5.04V4.59c1.01,1.01,2.31,1.99,3.75,2.3V4.17
	C13.35,3.47,11.79,1.43,11.28,0.61z"/>
</svg>
